{
    "asset" : {
        "generator" : "Khronos glTF Blender I/O v1.4.22",
        "version" : "2.0"
    },
    "scene" : 0,
    "scenes" : [
        {
            "name" : "Scene",
            "nodes" : [
                0,
                1,
                2,
                3,
                4,
                5
            ]
        }
    ],
    "nodes" : [
        {
            "mesh" : 0,
            "name" : "Plank"
        },
        {
            "mesh" : 1,
            "name" : "WindowWall"
        },
        {
            "mesh" : 2,
            "name" : "DoorFrame"
        },
        {
            "mesh" : 3,
            "name" : "WindowBlind"
        },
        {
            "mesh" : 4,
            "name" : "Door"
        },
        {
            "mesh" : 5,
            "name" : "Wall"
        }
    ],
    "materials" : [
        {
            "name" : "Material",
            "pbrMetallicRoughness" : {
                "baseColorTexture" : {
                    "index" : 0,
                    "texCoord" : 0
                },
                "metallicFactor" : 0,
                "roughnessFactor" : 0.5
            }
        }
    ],
    "meshes" : [
        {
            "name" : "Cube.005",
            "primitives" : [
                {
                    "attributes" : {
                        "POSITION" : 0,
                        "NORMAL" : 1,
                        "TEXCOORD_0" : 2
                    },
                    "indices" : 3,
                    "material" : 0
                }
            ]
        },
        {
            "name" : "Cube.006",
            "primitives" : [
                {
                    "attributes" : {
                        "POSITION" : 4,
                        "NORMAL" : 5,
                        "TEXCOORD_0" : 6
                    },
                    "indices" : 7,
                    "material" : 0
                }
            ]
        },
        {
            "name" : "Cube.007",
            "primitives" : [
                {
                    "attributes" : {
                        "POSITION" : 8,
                        "NORMAL" : 9,
                        "TEXCOORD_0" : 10
                    },
                    "indices" : 11,
                    "material" : 0
                }
            ]
        },
        {
            "name" : "Cube.008",
            "primitives" : [
                {
                    "attributes" : {
                        "POSITION" : 12,
                        "NORMAL" : 13,
                        "TEXCOORD_0" : 14
                    },
                    "indices" : 15,
                    "material" : 0
                }
            ]
        },
        {
            "name" : "Cube.009",
            "primitives" : [
                {
                    "attributes" : {
                        "POSITION" : 16,
                        "NORMAL" : 17,
                        "TEXCOORD_0" : 18
                    },
                    "indices" : 19,
                    "material" : 0
                }
            ]
        },
        {
            "name" : "Cube.011",
            "primitives" : [
                {
                    "attributes" : {
                        "POSITION" : 20,
                        "NORMAL" : 21,
                        "TEXCOORD_0" : 22
                    },
                    "indices" : 23,
                    "material" : 0
                }
            ]
        }
    ],
    "textures" : [
        {
            "sampler" : 0,
            "source" : 0
        }
    ],
    "images" : [
        {
            "bufferView" : 4,
            "mimeType" : "image/jpeg",
            "name" : "b1a2ff39dee1782feeea"
        }
    ],
    "accessors" : [
        {
            "bufferView" : 0,
            "componentType" : 5126,
            "count" : 24,
            "max" : [
                0.01714065670967102,
                0.1992737054824829,
                0
            ],
            "min" : [
                -0.01714065670967102,
                0,
                -1.3118946552276611
            ],
            "type" : "VEC3"
        },
        {
            "bufferView" : 1,
            "componentType" : 5126,
            "count" : 24,
            "type" : "VEC3"
        },
        {
            "bufferView" : 2,
            "componentType" : 5126,
            "count" : 24,
            "type" : "VEC2"
        },
        {
            "bufferView" : 3,
            "componentType" : 5123,
            "count" : 36,
            "type" : "SCALAR"
        },
        {
            "bufferView" : 5,
            "componentType" : 5126,
            "count" : 90,
            "max" : [
                0.05839867889881134,
                2.335946798324585,
                0
            ],
            "min" : [
                -0.11957089602947235,
                0,
                -2.335946798324585
            ],
            "type" : "VEC3"
        },
        {
            "bufferView" : 6,
            "componentType" : 5126,
            "count" : 90,
            "type" : "VEC3"
        },
        {
            "bufferView" : 7,
            "componentType" : 5126,
            "count" : 90,
            "type" : "VEC2"
        },
        {
            "bufferView" : 8,
            "componentType" : 5123,
            "count" : 156,
            "type" : "SCALAR"
        },
        {
            "bufferView" : 9,
            "componentType" : 5126,
            "count" : 159,
            "max" : [
                0.09145352244377136,
                2.335946798324585,
                0
            ],
            "min" : [
                -0.09145350754261017,
                0,
                -2.335946559906006
            ],
            "type" : "VEC3"
        },
        {
            "bufferView" : 10,
            "componentType" : 5126,
            "count" : 159,
            "type" : "VEC3"
        },
        {
            "bufferView" : 11,
            "componentType" : 5126,
            "count" : 159,
            "type" : "VEC2"
        },
        {
            "bufferView" : 12,
            "componentType" : 5123,
            "count" : 276,
            "type" : "SCALAR"
        },
        {
            "bufferView" : 13,
            "componentType" : 5126,
            "count" : 38,
            "max" : [
                0.039393987506628036,
                0.7051283717155457,
                0
            ],
            "min" : [
                -0.039394088089466095,
                0,
                -0.5154380798339844
            ],
            "type" : "VEC3"
        },
        {
            "bufferView" : 14,
            "componentType" : 5126,
            "count" : 38,
            "type" : "VEC3"
        },
        {
            "bufferView" : 15,
            "componentType" : 5126,
            "count" : 38,
            "type" : "VEC2"
        },
        {
            "bufferView" : 16,
            "componentType" : 5123,
            "count" : 60,
            "type" : "SCALAR"
        },
        {
            "bufferView" : 17,
            "componentType" : 5126,
            "count" : 184,
            "max" : [
                0.08450551331043243,
                1.534515380859375,
                0
            ],
            "min" : [
                -0.08450549095869064,
                0,
                -1.0042425394058228
            ],
            "type" : "VEC3"
        },
        {
            "bufferView" : 18,
            "componentType" : 5126,
            "count" : 184,
            "type" : "VEC3"
        },
        {
            "bufferView" : 19,
            "componentType" : 5126,
            "count" : 184,
            "type" : "VEC2"
        },
        {
            "bufferView" : 20,
            "componentType" : 5123,
            "count" : 300,
            "type" : "SCALAR"
        },
        {
            "bufferView" : 21,
            "componentType" : 5126,
            "count" : 24,
            "max" : [
                0.05839867889881134,
                2.335946798324585,
                0
            ],
            "min" : [
                -0.05839868262410164,
                0,
                -2.335946798324585
            ],
            "type" : "VEC3"
        },
        {
            "bufferView" : 22,
            "componentType" : 5126,
            "count" : 24,
            "type" : "VEC3"
        },
        {
            "bufferView" : 23,
            "componentType" : 5126,
            "count" : 24,
            "type" : "VEC2"
        },
        {
            "bufferView" : 24,
            "componentType" : 5123,
            "count" : 36,
            "type" : "SCALAR"
        }
    ],
    "bufferViews" : [
        {
            "buffer" : 0,
            "byteLength" : 288,
            "byteOffset" : 0
        },
        {
            "buffer" : 0,
            "byteLength" : 288,
            "byteOffset" : 288
        },
        {
            "buffer" : 0,
            "byteLength" : 192,
            "byteOffset" : 576
        },
        {
            "buffer" : 0,
            "byteLength" : 72,
            "byteOffset" : 768
        },
        {
            "buffer" : 0,
            "byteLength" : 89763,
            "byteOffset" : 840
        },
        {
            "buffer" : 0,
            "byteLength" : 1080,
            "byteOffset" : 90604
        },
        {
            "buffer" : 0,
            "byteLength" : 1080,
            "byteOffset" : 91684
        },
        {
            "buffer" : 0,
            "byteLength" : 720,
            "byteOffset" : 92764
        },
        {
            "buffer" : 0,
            "byteLength" : 312,
            "byteOffset" : 93484
        },
        {
            "buffer" : 0,
            "byteLength" : 1908,
            "byteOffset" : 93796
        },
        {
            "buffer" : 0,
            "byteLength" : 1908,
            "byteOffset" : 95704
        },
        {
            "buffer" : 0,
            "byteLength" : 1272,
            "byteOffset" : 97612
        },
        {
            "buffer" : 0,
            "byteLength" : 552,
            "byteOffset" : 98884
        },
        {
            "buffer" : 0,
            "byteLength" : 456,
            "byteOffset" : 99436
        },
        {
            "buffer" : 0,
            "byteLength" : 456,
            "byteOffset" : 99892
        },
        {
            "buffer" : 0,
            "byteLength" : 304,
            "byteOffset" : 100348
        },
        {
            "buffer" : 0,
            "byteLength" : 120,
            "byteOffset" : 100652
        },
        {
            "buffer" : 0,
            "byteLength" : 2208,
            "byteOffset" : 100772
        },
        {
            "buffer" : 0,
            "byteLength" : 2208,
            "byteOffset" : 102980
        },
        {
            "buffer" : 0,
            "byteLength" : 1472,
            "byteOffset" : 105188
        },
        {
            "buffer" : 0,
            "byteLength" : 600,
            "byteOffset" : 106660
        },
        {
            "buffer" : 0,
            "byteLength" : 288,
            "byteOffset" : 107260
        },
        {
            "buffer" : 0,
            "byteLength" : 288,
            "byteOffset" : 107548
        },
        {
            "buffer" : 0,
            "byteLength" : 192,
            "byteOffset" : 107836
        },
        {
            "buffer" : 0,
            "byteLength" : 72,
            "byteOffset" : 108028
        }
    ],
    "samplers" : [
        {
            "magFilter" : 9729,
            "minFilter" : 9986
        }
    ],
    "buffers" : [
        {
            "byteLength" : 108100,
            "uri" : "data:application/octet-stream;base64,"
        }
    ]
}
